<svg xmlns="http://www.w3.org/2000/svg" xmlns:xlink="http://www.w3.org/1999/xlink" viewBox="0 0 230 46">
  <defs>
    <style>
      .cls-1 {
        fill: none;
      }

      .cls-2 {
        fill: #fff;
      }

      .cls-3 {
        fill: #ec6c6b;
      }

      .cls-4 {
        clip-path: url(#clip-path);
      }

      .cls-5 {
        fill: red;
      }

      .cls-6 {
        fill: #1a1311;
      }
    </style>
    <clipPath id="clip-path">
      <rect class="cls-1" x="35.14" y="10.01" width="20" height="24"/>
    </clipPath>
  </defs>
  <g id="レイヤー_2" data-name="レイヤー 2">
    <path class="cls-2" d="M23,45A22,22,0,0,1,23,1H207a22,22,0,0,1,0,44Z"/>
    <path class="cls-3" d="M207,2a21,21,0,0,1,0,42H23A21,21,0,0,1,23,2H207m0-2H23A23,23,0,0,0,0,23H0A23,23,0,0,0,23,46H207a23,23,0,0,0,23-23h0A23,23,0,0,0,207,0Z"/>
    <g id="アートワーク_7" data-name="アートワーク 7">
      <g class="cls-4">
        <g class="cls-4">
          <g>
            <path class="cls-5" d="M35.16,34h20A13.58,13.58,0,0,0,36,33.19q-.42.39-.81.81"/>
            <path class="cls-6" d="M48.93,23a1.51,1.51,0,0,0-1.38-1.51,1.32,1.32,0,0,0-1.39,1.23v.08a1.62,1.62,0,0,0,1.59,1.55A1.27,1.27,0,0,0,48.93,23"/>
            <path class="cls-6" d="M43.52,19.52a1.25,1.25,0,0,0-1.18,1.29,1.29,1.29,0,0,0,1.22,1.36h.06A1.11,1.11,0,0,0,44.73,21v0a1.34,1.34,0,0,0-1.21-1.44"/>
            <path class="cls-6" d="M41.78,15.57s-.11-5.31-.12-5.56H39.78c0,.32-.11,5.44-.11,5.44v.17l-3,.2v1.89h3v1.61a45.74,45.74,0,0,0-3.88,4.46l1.25,1.35c.21-.23,2.71-2.83,2.71-2.83v.42s.11,5.58.11,5.9h1.75c0-1.48.14-5.79.14-9.35V17.58l2.36-.22V15.52h-.5Z"/>
            <path class="cls-6" d="M52.16,10H50.23v5.35h-.47l-4.23.27v1.76L50,17.3h.13v2.23L50.22,26v.18l-2.4-.06c0,.25-.16,1.53-.19,1.8a40.89,40.89,0,0,0,4.55.4c.06-1.4.14-6,.14-9.41v-1.7l2.26-.16V15.34h-2.3s-.12-5-.12-5.34"/>
          </g>
        </g>
      </g>
    </g>
    <g>
      <path class="cls-3" d="M76.7,19.05a3,3,0,0,0-.25.68,13.34,13.34,0,0,1-8.53,9.73,5.61,5.61,0,0,0-1.33-1.78,10.87,10.87,0,0,0,7.83-8.07H67.29a10.41,10.41,0,0,0-1.9.09V17.75a10.38,10.38,0,0,0,1.92.1H74.2a9.64,9.64,0,0,0,1.08,0,9.13,9.13,0,0,0-.93-1.52l1.09-.4a9.2,9.2,0,0,1,1.34,2.37l-.6.24ZM77.59,18a10.18,10.18,0,0,0-1.29-2.33l1.08-.4a8.46,8.46,0,0,1,1.32,2.28Z"/>
      <path class="cls-3" d="M82.38,27.51v1H80.44a9.19,9.19,0,0,0,.06-1.29V18.68a9.06,9.06,0,0,0-.06-1.26c.36,0,.68,0,1.27,0h8.52c.65,0,.92,0,1.27,0a11,11,0,0,0,0,1.24v8.58a9.5,9.5,0,0,0,.06,1.31H89.58v-1Zm7.2-8.35h-7.2V25.8h7.2Z"/>
      <path class="cls-3" d="M106.25,19.07a2.93,2.93,0,0,0-.37.9,14.9,14.9,0,0,1-3,5.67,15,15,0,0,1-5.34,3.79,4.92,4.92,0,0,0-1.27-1.57,12.07,12.07,0,0,0,7.66-8.09l-4.51.06a15.1,15.1,0,0,1-3.51,3.86,4,4,0,0,0-1.46-1.29,11.87,11.87,0,0,0,3.89-4.35,5.64,5.64,0,0,0,.76-2l2.06.42a2,2,0,0,0-.26.45c-.12.27-.25.57-.4.87a.83.83,0,0,0-.1.21l-.13.23a6.83,6.83,0,0,1,.72,0l3.29-.05a6.14,6.14,0,0,0,.78,0,9.38,9.38,0,0,0-1.1-1.87l1.11-.38a9.54,9.54,0,0,1,1.34,2.37l-.65.24Zm1-1.08a11,11,0,0,0-1.29-2.33l1.08-.37a8.73,8.73,0,0,1,1.32,2.28Z"/>
      <path class="cls-3" d="M111.38,17.25a7.51,7.51,0,0,0-.09-1.45h1.76a9.85,9.85,0,0,0-.09,1.47v1.27h.5a9.15,9.15,0,0,0,1.3-.09v1.64a10.83,10.83,0,0,0-1.27-.08H113a11.5,11.5,0,0,0,2.16,3,5.56,5.56,0,0,0-.81,1.51,11.57,11.57,0,0,1-1.46-2.44,16.08,16.08,0,0,1,.08,2.19V28a11.81,11.81,0,0,0,.09,1.63h-1.74A11.75,11.75,0,0,0,111.4,28V25a21.41,21.41,0,0,1,.09-2.24,13.71,13.71,0,0,1-2,3.78,5.5,5.5,0,0,0-.84-1.57,15.52,15.52,0,0,0,2.64-5h-.77a12.66,12.66,0,0,0-1.45.08V18.45a10.79,10.79,0,0,0,1.46.09h.88ZM121,27.71c0,.84-.21,1.26-.7,1.45a4.49,4.49,0,0,1-1.66.18c-.39,0-.52,0-1.56-.06a5.12,5.12,0,0,0-.45-1.66l.45.06a14.11,14.11,0,0,0,1.67.12c.49,0,.61-.08.61-.42V20.13h-2.58a13.16,13.16,0,0,0-1.68.09V18.56a12,12,0,0,0,1.66.09h2.6v-1a10.71,10.71,0,0,0-.11-1.75H121a14.65,14.65,0,0,0-.08,1.77v1h.1a9.11,9.11,0,0,0,1.45-.09v1.63c-.43,0-.85-.06-1.41-.06H121Zm-4-2.07a13.49,13.49,0,0,0-1.88-3.8l1.41-.69a14.23,14.23,0,0,1,1.89,3.6Z"/>
      <path class="cls-3" d="M124.27,17.91l.57,0c.27,0,.27,0,2.48-.15,1.09-.06,3.65-.2,7.66-.39a8,8,0,0,0,1.54-.12l.11,1.9h-.32a6.74,6.74,0,0,0-3,.81c-1.9,1-3,2.49-3,4a2.53,2.53,0,0,0,2,2.45,9.27,9.27,0,0,0,2.23.39,2.38,2.38,0,0,0,.3,0l-.27,2-.51-.09a9.11,9.11,0,0,1-3.51-1,4,4,0,0,1-2.14-3.61,5.24,5.24,0,0,1,1.42-3.53,6.83,6.83,0,0,1,2.09-1.51c-1.21.18-2.15.27-5,.48a17,17,0,0,0-2.49.3Zm10.33,2.88A9.88,9.88,0,0,1,136.18,23l-1.05.55a10.4,10.4,0,0,0-1.58-2.23Zm2.33,1.82a11.3,11.3,0,0,0-1.53-2.18l1-.52A8.49,8.49,0,0,1,138,22Z"/>
      <path class="cls-3" d="M151.75,18.27a2.29,2.29,0,0,0-.26.68,14.1,14.1,0,0,1-3.07,6.28,14.65,14.65,0,0,1-5.58,3.83,5.61,5.61,0,0,0-1.32-1.79,12.17,12.17,0,0,0,3.28-1.53,10.41,10.41,0,0,0,4.55-6.54h-7.14a12.59,12.59,0,0,0-1.89.09V17.34a10.5,10.5,0,0,0,1.92.11h6.88a5.54,5.54,0,0,0,1.61-.15Z"/>
      <path class="cls-3" d="M155.27,22.29a12.45,12.45,0,0,0-1.35.06V20.73a6.18,6.18,0,0,0,1.35.09h4.37v-.91a7.21,7.21,0,0,0-.08-1.19h1.76a6.31,6.31,0,0,0,0,1.13l0,1h1.3a6.82,6.82,0,0,0,1.35-.09v1.62a9.87,9.87,0,0,0-1.36-.06h-1.29l.07,5.71a6.89,6.89,0,0,0,.09,1.28h-1.83a8.52,8.52,0,0,0,.06-1.23V24.32c0-.17,0-.75,0-.93a6.19,6.19,0,0,1-.51.84,14.38,14.38,0,0,1-4.86,4,4.65,4.65,0,0,0-1.11-1.41,13.07,13.07,0,0,0,3.23-2,11.24,11.24,0,0,0,2.19-2.46Z"/>
      <path class="cls-3" d="M168.77,27.51v1h-1.93a11,11,0,0,0,.06-1.29V18.68a10.94,10.94,0,0,0-.06-1.26c.36,0,.67,0,1.27,0h8.52c.65,0,.92,0,1.26,0,0,.39,0,.69,0,1.24v8.58a9.5,9.5,0,0,0,.06,1.31H176v-1Zm7.2-8.35h-7.2V25.8H176Z"/>
      <path class="cls-3" d="M180.92,21.59a15,15,0,0,0,2.43.1h8a15,15,0,0,0,2.43-.1v2.08a17.73,17.73,0,0,0-2.45-.07h-8a17.73,17.73,0,0,0-2.45.07Z"/>
    </g>
  </g>
</svg>
